<svg xmlns="http://www.w3.org/2000/svg" viewBox="0 0 640 304" width="640" height="304" font-family="system-ui, -apple-system, sans-serif">
  <rect width="640" height="304" fill="white"/>
  <text x="320" y="22" text-anchor="middle" font-size="15" font-weight="600" fill="#222">Top drivers of hover height (±1 % input perturbation)</text>
  
      <line x1="320" y1="60" x2="320" y2="294" stroke="#888"/>
      
        <rect x="320.0" y="70" width="270.0" height="22" fill="#3060c0"/>
        <text x="62" y="85" text-anchor="end" font-size="12" fill="#333">holeDiaMm</text>
        <text x="594.0" y="85" font-size="11" fill="#444" text-anchor="start">1.86</text>
        <rect x="320.0" y="102" width="125.0" height="22" fill="#3060c0"/>
        <text x="62" y="117" text-anchor="end" font-size="12" fill="#333">stripLengthMm</text>
        <text x="449.0" y="117" font-size="11" fill="#444" text-anchor="start">0.86</text>
        <rect x="195.0" y="134" width="125.0" height="22" fill="#c03030"/>
        <text x="62" y="149" text-anchor="end" font-size="12" fill="#333">spacingMm</text>
        <text x="191.0" y="149" font-size="11" fill="#444" text-anchor="end">-0.86</text>
        <rect x="320.0" y="166" width="76.9" height="22" fill="#3060c0"/>
        <text x="62" y="181" text-anchor="end" font-size="12" fill="#333">fanPmaxPa</text>
        <text x="400.9" y="181" font-size="11" fill="#444" text-anchor="start">0.53</text>
        <rect x="246.0" y="198" width="74.0" height="22" fill="#c03030"/>
        <text x="62" y="213" text-anchor="end" font-size="12" fill="#333">massG</text>
        <text x="242.0" y="213" font-size="11" fill="#444" text-anchor="end">-0.51</text>
        <rect x="320.0" y="230" width="14.5" height="22" fill="#3060c0"/>
        <text x="62" y="245" text-anchor="end" font-size="12" fill="#333">fanFlowM3h</text>
        <text x="338.5" y="245" font-size="11" fill="#444" text-anchor="start">0.10</text>
        <rect x="320.0" y="262" width="11.7" height="22" fill="#3060c0"/>
        <text x="62" y="277" text-anchor="end" font-size="12" fill="#333">stripThicknessMm</text>
        <text x="335.7" y="277" font-size="11" fill="#444" text-anchor="start">0.08</text>
      <text x="320" y="299" text-anchor="middle" font-size="12" fill="#444">elasticity (Δy/y ÷ Δx/x)</text>
</svg>